<svg width="20" height="20" viewBox="0 0 20 20" fill="none" xmlns="http://www.w3.org/2000/svg">
<path d="M17.1 12.675L15.6 11.1667V7.45C15.62 6.06986 15.1399 4.72909 14.2485 3.67528C13.357 2.62147 12.1144 1.92578 10.75 1.71667C9.9582 1.61239 9.15324 1.67818 8.38886 1.90965C7.62448 2.14112 6.91825 2.53294 6.31729 3.05897C5.71634 3.585 5.23448 4.23315 4.90386 4.96016C4.57325 5.68718 4.40148 6.47634 4.40002 7.275V11.1667L2.90002 12.675C2.71161 12.8666 2.58384 13.1094 2.53269 13.3732C2.48153 13.6369 2.50927 13.9099 2.61242 14.158C2.71557 14.4061 2.88956 14.6183 3.11265 14.7681C3.33573 14.9178 3.59801 14.9985 3.86669 15H6.66669V15.2833C6.70561 16.1293 7.07831 16.9254 7.70312 17.4971C8.32794 18.0688 9.1539 18.3695 10 18.3333C10.8461 18.3695 11.6721 18.0688 12.2969 17.4971C12.9217 16.9254 13.2944 16.1293 13.3334 15.2833V15H16.1334C16.402 14.9985 16.6643 14.9178 16.8874 14.7681C17.1105 14.6183 17.2845 14.4061 17.3876 14.158C17.4908 13.9099 17.5185 13.6369 17.4674 13.3732C17.4162 13.1094 17.2884 12.8666 17.1 12.675ZM11.6667 15.2833C11.6205 15.6842 11.4214 16.0517 11.1109 16.3094C10.8004 16.5671 10.4025 16.6951 10 16.6667C9.59753 16.6951 9.1996 16.5671 8.88913 16.3094C8.57865 16.0517 8.37957 15.6842 8.33335 15.2833V15H11.6667V15.2833ZM4.59169 13.3333L5.57502 12.35C5.73099 12.195 5.85474 12.0106 5.93912 11.8075C6.02351 11.6044 6.06686 11.3866 6.06669 11.1667V7.275C6.06714 6.71284 6.18784 6.15727 6.42068 5.64559C6.65352 5.13392 6.99312 4.67796 7.41669 4.30834C7.83454 3.92974 8.32967 3.64646 8.8678 3.47811C9.40594 3.30976 9.97424 3.26037 10.5334 3.33334C11.4971 3.48982 12.3719 3.98918 12.9966 4.73949C13.6213 5.48979 13.954 6.44053 13.9334 7.41667V11.1667C13.9321 11.386 13.9741 11.6035 14.0571 11.8065C14.14 12.0096 14.2622 12.1943 14.4167 12.35L15.4084 13.3333H4.59169Z" fill="black"/>
</svg>
