<svg width="20" height="20" viewBox="0 0 20 20" fill="none" xmlns="http://www.w3.org/2000/svg">
<path d="M10.0945 18.6655C8.96255 18.6676 7.84136 18.446 6.79535 18.0134C5.74933 17.5808 4.79912 16.9458 3.99931 16.1448C0.637927 12.7834 0.637927 7.31448 3.99931 3.9531C4.79793 3.14999 5.74792 2.51326 6.79427 2.07975C7.84063 1.64625 8.96257 1.42458 10.0952 1.42758C12.3979 1.42758 14.5628 2.32413 16.1903 3.9531C17.8186 5.58137 18.7159 7.7462 18.7159 10.049C18.7159 12.3517 17.8193 14.5165 16.1903 16.1448C15.3904 16.9458 14.44 17.5808 13.3939 18.0134C12.3478 18.446 11.2265 18.6676 10.0945 18.6655ZM10.0952 2.80689C9.14374 2.80419 8.20123 2.9903 7.32224 3.35445C6.44325 3.71859 5.64526 4.25353 4.97448 4.92827C3.60689 6.29586 2.85379 8.11448 2.85379 10.049C2.85379 11.9834 3.60689 13.8014 4.97448 15.1696C7.79793 17.9931 12.3924 17.9938 15.2152 15.1696C16.5828 13.8021 17.3365 11.9834 17.3365 10.049C17.3365 8.11448 16.5834 6.29655 15.2152 4.92827C14.5444 4.25373 13.7465 3.71893 12.8676 3.35479C11.9888 2.99066 11.0465 2.80443 10.0952 2.80689Z" fill="#FF2E00"/>
<path d="M7.169 13.6641C7.03248 13.6644 6.89894 13.6242 6.78534 13.5484C6.67174 13.4727 6.5832 13.365 6.53095 13.2388C6.47871 13.1127 6.46512 12.9739 6.49191 12.84C6.5187 12.7061 6.58466 12.5832 6.68142 12.4869L12.5331 6.63518C12.5972 6.57115 12.6732 6.52035 12.7568 6.4857C12.8405 6.45105 12.9302 6.43321 13.0207 6.43321C13.1113 6.43321 13.2009 6.45105 13.2846 6.4857C13.3683 6.52035 13.4443 6.57115 13.5083 6.63518C13.5723 6.69921 13.6231 6.77522 13.6578 6.85888C13.6924 6.94254 13.7103 7.03221 13.7103 7.12276C13.7103 7.21332 13.6924 7.30298 13.6578 7.38664C13.6231 7.4703 13.5723 7.54632 13.5083 7.61035L7.65659 13.4621C7.59272 13.5263 7.51674 13.5773 7.43305 13.612C7.34935 13.6467 7.2596 13.6644 7.169 13.6641Z" fill="#FF2E00"/>
<path d="M13.0208 13.6641C12.9302 13.6642 12.8405 13.6464 12.7568 13.6118C12.6731 13.5771 12.5971 13.5262 12.5332 13.4621L6.68146 7.61035C6.61743 7.54632 6.56663 7.4703 6.53198 7.38664C6.49733 7.30298 6.47949 7.21332 6.47949 7.12276C6.47949 7.03221 6.49733 6.94254 6.53198 6.85888C6.56663 6.77522 6.61743 6.69921 6.68146 6.63518C6.74549 6.57115 6.8215 6.52035 6.90516 6.4857C6.98882 6.45105 7.07849 6.43321 7.16904 6.43321C7.2596 6.43321 7.34926 6.45105 7.43292 6.4857C7.51658 6.52035 7.5926 6.57115 7.65663 6.63518L13.5084 12.4869C13.6051 12.5832 13.6711 12.7061 13.6979 12.84C13.7246 12.9739 13.7111 13.1127 13.6588 13.2388C13.6066 13.365 13.518 13.4727 13.4044 13.5484C13.2908 13.6242 13.1573 13.6644 13.0208 13.6641Z" fill="#FF2E00"/>
</svg>
