<svg width="15" height="15" viewBox="0 0 15 15" fill="none" xmlns="http://www.w3.org/2000/svg">
<path d="M7.5 2C6.40291 2.00003 5.32515 2.28884 4.37506 2.8374C3.42496 3.38596 2.63599 4.17495 2.08746 5.12507C1.53893 6.07518 1.25015 7.15295 1.25016 8.25004C1.25017 9.34713 1.53896 10.4249 2.0875 11.375C2.17038 11.5192 2.30715 11.6246 2.46773 11.668C2.62831 11.7113 2.79954 11.6891 2.94375 11.6063C3.08796 11.5234 3.19334 11.3866 3.23671 11.226C3.28008 11.0654 3.25788 10.8942 3.175 10.75C2.73215 9.99133 2.49918 9.12847 2.5 8.25C2.5003 7.48324 2.67694 6.72682 3.01627 6.03923C3.35559 5.35164 3.84851 4.7513 4.45691 4.28463C5.0653 3.81797 5.77288 3.49748 6.52492 3.34795C7.27695 3.19842 8.05331 3.22385 8.79395 3.42228C9.53459 3.62071 10.2197 3.98682 10.7962 4.4923C11.3728 4.99779 11.8253 5.6291 12.1189 6.33742C12.4125 7.04575 12.5393 7.81211 12.4894 8.57724C12.4395 9.34238 12.2143 10.0858 11.8313 10.75C11.7899 10.8213 11.7631 10.9001 11.7524 10.9819C11.7416 11.0636 11.7472 11.1467 11.7687 11.2263C11.7902 11.3058 11.8272 11.3804 11.8776 11.4456C11.9281 11.5108 11.9909 11.5654 12.0625 11.6063C12.206 11.6877 12.3759 11.7091 12.5352 11.6658C12.6944 11.6225 12.8301 11.518 12.9125 11.375C13.461 10.4249 13.7498 9.34713 13.7498 8.25004C13.7498 7.15295 13.4611 6.07518 12.9125 5.12507C12.364 4.17495 11.575 3.38596 10.6249 2.8374C9.67485 2.28884 8.59709 2.00003 7.5 2ZM9.275 5.6L8.30625 6.5625C8.05549 6.43886 7.77959 6.3747 7.5 6.375C7.12916 6.375 6.76665 6.48497 6.45831 6.69099C6.14996 6.89702 5.90964 7.18986 5.76773 7.53247C5.62581 7.87508 5.58868 8.25208 5.66103 8.61579C5.73338 8.97951 5.91195 9.3136 6.17418 9.57583C6.4364 9.83805 6.77049 10.0166 7.13421 10.089C7.49792 10.1613 7.87492 10.1242 8.21753 9.98227C8.56014 9.84036 8.85298 9.60004 9.05901 9.29169C9.26503 8.98335 9.375 8.62084 9.375 8.25C9.37457 7.9725 9.31042 7.6988 9.1875 7.45L10.1563 6.4875C10.2148 6.4294 10.2613 6.36027 10.2931 6.28411C10.3248 6.20795 10.3411 6.12626 10.3411 6.04375C10.3411 5.96124 10.3248 5.87955 10.2931 5.80339C10.2613 5.72723 10.2148 5.6581 10.1563 5.6C10.0391 5.48359 9.88074 5.41825 9.71563 5.41825C9.55051 5.41825 9.3921 5.48359 9.275 5.6ZM7.5 8.875C7.33424 8.875 7.17527 8.80915 7.05806 8.69194C6.94085 8.57473 6.875 8.41576 6.875 8.25C6.875 8.08424 6.94085 7.92527 7.05806 7.80806C7.17527 7.69085 7.33424 7.625 7.5 7.625C7.66308 7.62402 7.82008 7.68682 7.9375 7.8C7.99731 7.85862 8.04472 7.92866 8.07693 8.00596C8.10914 8.08327 8.12549 8.16626 8.125 8.25C8.125 8.41576 8.05915 8.57473 7.94194 8.69194C7.82473 8.80915 7.66576 8.875 7.5 8.875Z" fill="#1EAD5D"/>
</svg>
