<svg width="20" height="20" viewBox="0 0 20 20" fill="none" xmlns="http://www.w3.org/2000/svg">
<path d="M14.5834 4.58334H12.0084C12.075 4.39508 12.0955 4.19361 12.0682 3.99581C12.0409 3.798 11.9666 3.60961 11.8515 3.44641C11.7365 3.28322 11.584 3.14995 11.4069 3.05779C11.2297 2.96562 11.0331 2.91723 10.8334 2.91667H9.16675C8.96707 2.91723 8.77043 2.96562 8.59329 3.05779C8.41616 3.14995 8.26368 3.28322 8.14862 3.44641C8.03357 3.60961 7.95928 3.798 7.93199 3.99581C7.9047 4.19361 7.92519 4.39508 7.99175 4.58334H5.41675C5.08523 4.58334 4.76728 4.71503 4.53286 4.94946C4.29844 5.18388 4.16675 5.50182 4.16675 5.83334C4.16675 6.16486 4.29844 6.4828 4.53286 6.71722C4.76728 6.95164 5.08523 7.08334 5.41675 7.08334V15.4167C5.41675 15.8587 5.59234 16.2826 5.9049 16.5952C6.21746 16.9077 6.64139 17.0833 7.08342 17.0833H12.9167C13.3588 17.0833 13.7827 16.9077 14.0953 16.5952C14.4078 16.2826 14.5834 15.8587 14.5834 15.4167V7.08334C14.9149 7.08334 15.2329 6.95164 15.4673 6.71722C15.7017 6.4828 15.8334 6.16486 15.8334 5.83334C15.8334 5.50182 15.7017 5.18388 15.4673 4.94946C15.2329 4.71503 14.9149 4.58334 14.5834 4.58334ZM8.75008 4.16667C8.75008 4.05616 8.79398 3.95018 8.87212 3.87204C8.95026 3.7939 9.05624 3.75001 9.16675 3.75001H10.8334C10.9439 3.75001 11.0499 3.7939 11.128 3.87204C11.2062 3.95018 11.2501 4.05616 11.2501 4.16667C11.2501 4.27718 11.2062 4.38316 11.128 4.4613C11.0499 4.53944 10.9439 4.58334 10.8334 4.58334H9.16675C9.05624 4.58334 8.95026 4.53944 8.87212 4.4613C8.79398 4.38316 8.75008 4.27718 8.75008 4.16667ZM13.7501 15.4167C13.7501 15.6377 13.6623 15.8496 13.506 16.0059C13.3497 16.1622 13.1378 16.25 12.9167 16.25H7.08342C6.8624 16.25 6.65044 16.1622 6.49416 16.0059C6.33788 15.8496 6.25008 15.6377 6.25008 15.4167V7.08334H13.7501V15.4167ZM14.5834 6.25001H5.41675C5.30624 6.25001 5.20026 6.20611 5.12212 6.12797C5.04398 6.04983 5.00008 5.94385 5.00008 5.83334C5.00008 5.72283 5.04398 5.61685 5.12212 5.53871C5.20026 5.46057 5.30624 5.41667 5.41675 5.41667H14.5834C14.6939 5.41667 14.7999 5.46057 14.878 5.53871C14.9562 5.61685 15.0001 5.72283 15.0001 5.83334C15.0001 5.94385 14.9562 6.04983 14.878 6.12797C14.7999 6.20611 14.6939 6.25001 14.5834 6.25001ZM7.50008 14.6167V8.75001C7.50008 8.6395 7.54398 8.53352 7.62212 8.45538C7.70026 8.37724 7.80624 8.33334 7.91675 8.33334C8.02726 8.33334 8.13324 8.37724 8.21138 8.45538C8.28952 8.53352 8.33342 8.6395 8.33342 8.75001V14.5833C8.33342 14.6938 8.28952 14.7998 8.21138 14.878C8.13324 14.9561 8.02726 15 7.91675 15C7.80624 15 7.70026 14.9561 7.62212 14.878C7.54398 14.7998 7.50008 14.6938 7.50008 14.5833V14.6167ZM11.6667 14.6167V8.75001C11.6667 8.6395 11.7106 8.53352 11.7888 8.45538C11.8669 8.37724 11.9729 8.33334 12.0834 8.33334C12.1939 8.33334 12.2999 8.37724 12.378 8.45538C12.4562 8.53352 12.5001 8.6395 12.5001 8.75001V14.5833C12.5001 14.6938 12.4562 14.7998 12.378 14.878C12.2999 14.9561 12.1939 15 12.0834 15C11.9729 15 11.8669 14.9561 11.7888 14.878C11.7106 14.7998 11.6667 14.6938 11.6667 14.5833V14.6167ZM9.58342 13.3667V10C9.58342 9.8895 9.62731 9.78352 9.70545 9.70538C9.78359 9.62724 9.88958 9.58334 10.0001 9.58334C10.1106 9.58334 10.2166 9.62724 10.2947 9.70538C10.3729 9.78352 10.4167 9.8895 10.4167 10V13.3333C10.4167 13.4438 10.3729 13.5498 10.2947 13.628C10.2166 13.7061 10.1106 13.75 10.0001 13.75C9.88958 13.75 9.78359 13.7061 9.70545 13.628C9.62731 13.5498 9.58342 13.4438 9.58342 13.3333V13.3667Z" fill="#FF2E00"/>
</svg>
