<svg width="14" height="14" viewBox="0 0 14 14" fill="none" xmlns="http://www.w3.org/2000/svg">
<path d="M10.6167 14H2.21667C0.991667 14 0 13.0083 0 11.7833V3.38333C0 2.15833 0.991667 1.16666 2.21667 1.16666H6.41667C6.76667 1.16666 7 1.4 7 1.75C7 2.1 6.76667 2.33333 6.41667 2.33333H2.21667C1.63333 2.33333 1.16667 2.8 1.16667 3.38333V11.725C1.16667 12.3083 1.63333 12.775 2.21667 12.775H10.5583C11.1417 12.775 11.6083 12.3083 11.6083 11.725V7.58333C11.6083 7.23333 11.8417 7 12.1917 7C12.5417 7 12.775 7.23333 12.775 7.58333V11.7833C12.8333 13.0083 11.8417 14 10.6167 14Z" fill="#0B2880"/>
<path d="M3.49984 11.0833C3.32484 11.0833 3.20817 11.025 3.0915 10.9083C2.97484 10.7917 2.9165 10.5583 2.9165 10.3833L3.49984 7.46667C3.49984 7.35 3.55817 7.23333 3.67484 7.175L10.6748 0.175C10.9082 -0.0583333 11.2582 -0.0583333 11.4915 0.175L13.8248 2.50833C14.0582 2.74167 14.0582 3.09167 13.8248 3.325L6.82484 10.325C6.7665 10.3833 6.64984 10.4417 6.53317 10.5L3.6165 11.0833H3.49984ZM4.60817 7.875L4.25817 9.74167L6.12484 9.39167L12.5998 2.91667L11.0832 1.4L4.60817 7.875Z" fill="#0B2880"/>
</svg>
