<svg width="15" height="15" viewBox="0 0 15 15" fill="none" xmlns="http://www.w3.org/2000/svg">
<path d="M12.8125 3.4375H6.74062L6.39062 2.71562C6.31376 2.55726 6.19385 2.42373 6.04463 2.33033C5.89541 2.23693 5.72291 2.18743 5.54688 2.1875H2.1875C1.93886 2.1875 1.7004 2.28627 1.52459 2.46209C1.34877 2.6379 1.25 2.87636 1.25 3.125V11.875C1.25 12.1236 1.34877 12.3621 1.52459 12.5379C1.7004 12.7137 1.93886 12.8125 2.1875 12.8125H12.8125C13.0611 12.8125 13.2996 12.7137 13.4754 12.5379C13.6512 12.3621 13.75 12.1236 13.75 11.875V4.375C13.75 4.12636 13.6512 3.8879 13.4754 3.71209C13.2996 3.53627 13.0611 3.4375 12.8125 3.4375ZM13.125 11.875C13.125 11.9579 13.0921 12.0374 13.0335 12.096C12.9749 12.1546 12.8954 12.1875 12.8125 12.1875H2.1875C2.10462 12.1875 2.02513 12.1546 1.96653 12.096C1.90792 12.0374 1.875 11.9579 1.875 11.875V3.125C1.875 3.04212 1.90792 2.96263 1.96653 2.90403C2.02513 2.84542 2.10462 2.8125 2.1875 2.8125H5.54688C5.60544 2.81238 5.66287 2.82873 5.71259 2.85967C5.76232 2.89061 5.80235 2.93491 5.82812 2.9875L6.7 4.78438C6.77687 4.94274 6.89678 5.07627 7.04599 5.16967C7.19521 5.26307 7.36771 5.31257 7.54375 5.3125H12.1875C12.2704 5.3125 12.3499 5.27958 12.4085 5.22097C12.4671 5.16237 12.5 5.08288 12.5 5C12.5 4.91712 12.4671 4.83763 12.4085 4.77903C12.3499 4.72042 12.2704 4.6875 12.1875 4.6875H7.54375C7.48518 4.68762 7.42776 4.67127 7.37803 4.64033C7.3283 4.60939 7.28827 4.56509 7.2625 4.5125L7.04375 4.0625H12.8125C12.8954 4.0625 12.9749 4.09542 13.0335 4.15403C13.0921 4.21263 13.125 4.29212 13.125 4.375V11.875ZM10.625 9.6875H7.13125C7.06556 9.50652 6.94574 9.35014 6.78807 9.23964C6.63041 9.12913 6.44254 9.06985 6.25 9.06985C6.05746 9.06985 5.86959 9.12913 5.71193 9.23964C5.55426 9.35014 5.43444 9.50652 5.36875 9.6875H4.375C4.29212 9.6875 4.21263 9.72042 4.15403 9.77903C4.09542 9.83763 4.0625 9.91712 4.0625 10C4.0625 10.0829 4.09542 10.1624 4.15403 10.221C4.21263 10.2796 4.29212 10.3125 4.375 10.3125H5.36875C5.43444 10.4935 5.55426 10.6499 5.71193 10.7604C5.86959 10.8709 6.05746 10.9302 6.25 10.9302C6.44254 10.9302 6.63041 10.8709 6.78807 10.7604C6.94574 10.6499 7.06556 10.4935 7.13125 10.3125H10.625C10.7079 10.3125 10.7874 10.2796 10.846 10.221C10.9046 10.1624 10.9375 10.0829 10.9375 10C10.9375 9.91712 10.9046 9.83763 10.846 9.77903C10.7874 9.72042 10.7079 9.6875 10.625 9.6875ZM6.25 10.3125C6.18819 10.3125 6.12777 10.2942 6.07638 10.2598C6.02499 10.2255 5.98494 10.1767 5.96129 10.1196C5.93763 10.0625 5.93145 9.99965 5.9435 9.93903C5.95556 9.87842 5.98532 9.82273 6.02903 9.77903C6.07273 9.73532 6.12842 9.70556 6.18903 9.6935C6.24965 9.68145 6.31249 9.68763 6.36959 9.71129C6.42669 9.73494 6.4755 9.77499 6.50983 9.82638C6.54417 9.87777 6.5625 9.93819 6.5625 10C6.5625 10.0829 6.52958 10.1624 6.47097 10.221C6.41237 10.2796 6.33288 10.3125 6.25 10.3125ZM10.625 7.1875H9.63125C9.56556 7.00652 9.44574 6.85014 9.28807 6.73964C9.13041 6.62913 8.94254 6.56985 8.75 6.56985C8.55746 6.56985 8.36959 6.62913 8.21193 6.73964C8.05426 6.85014 7.93444 7.00652 7.86875 7.1875H4.375C4.29212 7.1875 4.21263 7.22042 4.15403 7.27903C4.09542 7.33763 4.0625 7.41712 4.0625 7.5C4.0625 7.58288 4.09542 7.66237 4.15403 7.72097C4.21263 7.77958 4.29212 7.8125 4.375 7.8125H7.86875C7.93444 7.99348 8.05426 8.14986 8.21193 8.26036C8.36959 8.37087 8.55746 8.43015 8.75 8.43015C8.94254 8.43015 9.13041 8.37087 9.28807 8.26036C9.44574 8.14986 9.56556 7.99348 9.63125 7.8125H10.625C10.7079 7.8125 10.7874 7.77958 10.846 7.72097C10.9046 7.66237 10.9375 7.58288 10.9375 7.5C10.9375 7.41712 10.9046 7.33763 10.846 7.27903C10.7874 7.22042 10.7079 7.1875 10.625 7.1875ZM8.75 7.8125C8.68819 7.8125 8.62777 7.79417 8.57638 7.75983C8.52499 7.7255 8.48494 7.67669 8.46129 7.61959C8.43763 7.56249 8.43145 7.49965 8.4435 7.43903C8.45556 7.37842 8.48532 7.32273 8.52903 7.27903C8.57273 7.23532 8.62842 7.20556 8.68903 7.1935C8.74965 7.18145 8.81249 7.18763 8.86959 7.21129C8.92669 7.23494 8.9755 7.27499 9.00983 7.32638C9.04417 7.37777 9.0625 7.43819 9.0625 7.5C9.0625 7.58288 9.02958 7.66237 8.97097 7.72097C8.91237 7.77958 8.83288 7.8125 8.75 7.8125Z" fill="#2F4858" stroke="#2F4858" stroke-width="0.2"/>
</svg>
