<svg width="11" height="15" viewBox="0 0 11 15" fill="none" xmlns="http://www.w3.org/2000/svg">
<path d="M9.02823 2.95899H7.78516V2.84871C7.78507 2.61493 7.69261 2.39066 7.52791 2.22474C7.36321 2.05883 7.13962 1.96471 6.90585 1.96289H6.67833C6.66296 1.66075 6.53211 1.37605 6.31282 1.16763C6.09352 0.959205 5.80255 0.842987 5.50001 0.842987C5.19747 0.842987 4.90649 0.959205 4.6872 1.16763C4.46791 1.37605 4.33706 1.66075 4.32169 1.96289H4.09417C3.86039 1.96471 3.63681 2.05883 3.47211 2.22474C3.30741 2.39066 3.21495 2.61493 3.21485 2.84871V2.95899H1.97179C1.27678 2.95899 0.724618 3.52984 0.724618 4.22485V12.8899C0.72332 13.0542 0.754384 13.217 0.816036 13.3693C0.877688 13.5215 0.96872 13.6601 1.08394 13.7771C1.19915 13.8942 1.33629 13.9874 1.48753 14.0514C1.63877 14.1155 1.80114 14.1491 1.96537 14.1504H9.02823C9.35989 14.1495 9.67761 14.0169 9.91149 13.7817C10.1454 13.5466 10.2763 13.2281 10.2754 12.8965C10.2754 12.8943 10.2754 12.8922 10.2754 12.8901V4.22485C10.2754 3.52984 9.72324 2.95899 9.02823 2.95899ZM5.50001 1.42866C5.64679 1.43002 5.78799 1.48514 5.89687 1.58359C6.00576 1.68204 6.07478 1.81699 6.09087 1.96289H4.90915C4.92524 1.81699 4.99426 1.68204 5.10314 1.58359C5.21203 1.48514 5.35322 1.43002 5.50001 1.42866ZM3.80079 2.84871C3.80071 2.77028 3.83139 2.69493 3.88624 2.63887C3.9411 2.5828 4.01575 2.55047 4.09417 2.54883H6.90585C6.98427 2.55047 7.05892 2.5828 7.11377 2.63887C7.16862 2.69493 7.19931 2.77028 7.19923 2.84871V4.01367H3.80079V2.84871ZM9.68946 12.8899C9.69085 12.9771 9.67504 13.0637 9.64295 13.1448C9.61085 13.2259 9.5631 13.2999 9.50241 13.3625C9.44172 13.4252 9.36929 13.4753 9.28926 13.5099C9.20922 13.5445 9.12314 13.5631 9.03594 13.5645C9.03336 13.5645 9.03081 13.5645 9.02823 13.5645H1.97179C1.79568 13.5637 1.62708 13.493 1.50308 13.368C1.37908 13.2429 1.30982 13.0737 1.31056 12.8976V12.8899V4.22485C1.31056 3.85292 1.59986 3.54492 1.97179 3.54492H3.21485V4.31775C3.21514 4.35507 3.22277 4.39196 3.23731 4.42633C3.25186 4.4607 3.27303 4.49187 3.29962 4.51806C3.32621 4.54425 3.3577 4.56494 3.39228 4.57896C3.42687 4.59298 3.46388 4.60004 3.5012 4.59976C3.50354 4.59976 3.50589 4.59976 3.50823 4.59976H7.49179C7.52911 4.60099 7.56631 4.59485 7.60126 4.58169C7.63621 4.56853 7.66822 4.54861 7.69547 4.52307C7.72271 4.49754 7.74466 4.46688 7.76005 4.43285C7.77544 4.39883 7.78398 4.3621 7.78516 4.32478C7.78516 4.32243 7.78516 4.32009 7.78516 4.31775V3.54492H9.02823C9.40016 3.54492 9.68946 3.85292 9.68946 4.22485V12.8899Z" fill="#2F4858" stroke="#2F4858" stroke-width="0.2"/>
<path d="M2.70548 10.5762H5.4385C5.5162 10.5762 5.59072 10.5453 5.64566 10.4904C5.7006 10.4354 5.73147 10.3609 5.73147 10.2832C5.73147 10.2055 5.7006 10.131 5.64566 10.076C5.59072 10.0211 5.5162 9.99023 5.4385 9.99023H2.70548C2.62778 9.99023 2.55326 10.0211 2.49832 10.076C2.44338 10.131 2.41251 10.2055 2.41251 10.2832C2.41251 10.3609 2.44338 10.4354 2.49832 10.4904C2.55326 10.5453 2.62778 10.5762 2.70548 10.5762Z" fill="#2F4858" stroke="#2F4858" stroke-width="0.2"/>
<path d="M8.29456 11.4258H2.70548C2.62778 11.4258 2.55326 11.4566 2.49832 11.5116C2.44338 11.5665 2.41251 11.641 2.41251 11.7188C2.41251 11.7965 2.44338 11.871 2.49832 11.9259C2.55326 11.9809 2.62778 12.0117 2.70548 12.0117H8.29456C8.37226 12.0117 8.44678 11.9809 8.50172 11.9259C8.55667 11.871 8.58753 11.7965 8.58753 11.7188C8.58753 11.641 8.55667 11.5665 8.50172 11.5116C8.44678 11.4566 8.37226 11.4258 8.29456 11.4258Z" fill="#2F4858" stroke="#2F4858" stroke-width="0.2"/>
</svg>
