<svg width="15" height="15" viewBox="0 0 15 15" fill="none" xmlns="http://www.w3.org/2000/svg">
<path d="M10 13.75C11.375 13.75 12.5 12.625 12.5 11.25V3.75C12.5 2.375 11.375 1.25 10 1.25H5C3.625 1.25 2.5 2.375 2.5 3.75V11.25C2.5 12.625 3.625 13.75 5 13.75H10ZM3.75 11.25V3.75C3.75 3.0625 4.3125 2.5 5 2.5H10C10.6875 2.5 11.25 3.0625 11.25 3.75V11.25C11.25 11.9375 10.6875 12.5 10 12.5H5C4.3125 12.5 3.75 11.9375 3.75 11.25Z" fill="#2F4858"/>
<path d="M5.625 5.625H7.5C7.875 5.625 8.125 5.375 8.125 5C8.125 4.625 7.875 4.375 7.5 4.375H5.625C5.25 4.375 5 4.625 5 5C5 5.375 5.25 5.625 5.625 5.625ZM5.625 8.125H9.375C9.75 8.125 10 7.875 10 7.5C10 7.125 9.75 6.875 9.375 6.875H5.625C5.25 6.875 5 7.125 5 7.5C5 7.875 5.25 8.125 5.625 8.125ZM5.625 10.625H9.375C9.75 10.625 10 10.375 10 10C10 9.625 9.75 9.375 9.375 9.375H5.625C5.25 9.375 5 9.625 5 10C5 10.375 5.25 10.625 5.625 10.625Z" fill="#2F4858"/>
</svg>
