<svg width="20" height="20" viewBox="0 0 20 20" fill="none" xmlns="http://www.w3.org/2000/svg">
<g clip-path="url(#clip0_155_964)">
<path d="M2.7201 7.88L8.3201 13.48C8.5801 13.74 9.0001 13.56 9.0001 13.2V10.36C9.1201 10.36 9.2401 10.34 9.3401 10.34C11.9001 10.34 13.9801 12.4 13.9801 14.92C13.9801 15.96 13.6201 16.86 12.9001 17.72C12.6201 18.04 13.0001 18.54 13.3801 18.34C15.9001 17.06 17.4001 14.68 17.4001 11.98C17.4001 7.94 14.0601 4.68 9.9401 4.68C9.6201 4.68 9.2801 4.7 9.0001 4.74V2C9.0001 1.64 8.5801 1.46 8.3201 1.72L2.7201 7.32C2.5601 7.48 2.5601 7.72 2.7201 7.88ZM3.5601 7.6L8.2001 2.96V5.2C8.2001 5.44 8.4201 5.64 8.6801 5.6C9.0001 5.54 9.4801 5.46 9.9601 5.46C13.6201 5.46 16.6001 8.38 16.6001 11.98C16.6001 13.8 15.8201 15.48 14.4601 16.66C14.6601 16.12 14.7801 15.54 14.7801 14.94C14.7801 11.96 12.3401 9.56 9.3401 9.56C8.7201 9.56 8.2001 9.56 8.2001 10V12.24L3.5601 7.6Z" fill="#2F4858"/>
<path d="M76.7999 -102V234.8H-280V-102H76.7999ZM78.3999 -103.6H-281.6V236.4H78.3999V-103.6Z" fill="#0000FF"/>
</g>
<defs>
<clipPath id="clip0_155_964">
<rect width="20" height="20" fill="white"/>
</clipPath>
</defs>
</svg>
