<svg width="15" height="15" viewBox="0 0 15 15" fill="none" xmlns="http://www.w3.org/2000/svg">
<g clip-path="url(#clip0_37_50)">
<path d="M8.42285 5.38319H10.2686C10.3268 5.38319 10.3827 5.36004 10.4239 5.31884C10.4651 5.27763 10.4883 5.22174 10.4883 5.16347C10.4883 5.10519 10.4651 5.0493 10.4239 5.00809C10.3827 4.96689 10.3268 4.94374 10.2686 4.94374H8.42285C8.36458 4.94374 8.30869 4.96689 8.26748 5.00809C8.22627 5.0493 8.20312 5.10519 8.20312 5.16347C8.20312 5.22174 8.22627 5.27763 8.26748 5.31884C8.30869 5.36004 8.36458 5.38319 8.42285 5.38319ZM7.5 1.36232C7.54346 1.36232 7.58594 1.34943 7.62207 1.32529C7.65821 1.30115 7.68637 1.26683 7.703 1.22668C7.71963 1.18653 7.72398 1.14235 7.7155 1.09973C7.70703 1.0571 7.6861 1.01795 7.65537 0.987224C7.62464 0.956495 7.58549 0.935568 7.54287 0.927089C7.50024 0.918611 7.45606 0.922963 7.41591 0.939593C7.37576 0.956224 7.34145 0.984387 7.3173 1.02052C7.29316 1.05665 7.28027 1.09914 7.28027 1.14259C7.28027 1.20087 7.30342 1.25676 7.34463 1.29796C7.38584 1.33917 7.44172 1.36232 7.5 1.36232ZM7.50375 8.48673L6.31047 9.68003L5.93758 9.30713C5.89634 9.26609 5.84051 9.24308 5.78233 9.24315C5.72414 9.24322 5.66836 9.26637 5.62722 9.30751C5.58608 9.34865 5.56294 9.40443 5.56287 9.46261C5.5628 9.52079 5.5858 9.57663 5.62685 9.61787L6.15511 10.1461C6.17551 10.1665 6.19973 10.1827 6.22639 10.1938C6.25305 10.2048 6.28162 10.2105 6.31047 10.2105C6.33933 10.2105 6.3679 10.2048 6.39456 10.1938C6.42122 10.1827 6.44544 10.1665 6.46584 10.1461L7.81448 8.79747C7.85566 8.75626 7.87878 8.70038 7.87877 8.64212C7.87875 8.58387 7.8556 8.528 7.81441 8.4868C7.77322 8.44561 7.71735 8.42246 7.6591 8.42245C7.60084 8.42244 7.54496 8.44556 7.50375 8.48673ZM8.42285 6.2621H10.2686C10.3268 6.2621 10.3827 6.23895 10.4239 6.19774C10.4651 6.15654 10.4883 6.10065 10.4883 6.04237C10.4883 5.9841 10.4651 5.92821 10.4239 5.887C10.3827 5.8458 10.3268 5.82265 10.2686 5.82265H8.42285C8.36458 5.82265 8.30869 5.8458 8.26748 5.887C8.22627 5.92821 8.20312 5.9841 8.20312 6.04237C8.20312 6.10065 8.22627 6.15654 8.26748 6.19774C8.30869 6.23895 8.36458 6.2621 8.42285 6.2621ZM8.42285 10.2172H10.2686C10.3268 10.2172 10.3827 10.194 10.4239 10.1528C10.4651 10.1116 10.4883 10.0557 10.4883 9.99745C10.4883 9.93918 10.4651 9.88329 10.4239 9.84208C10.3827 9.80088 10.3268 9.77773 10.2686 9.77773H8.42285C8.36458 9.77773 8.30869 9.80088 8.26748 9.84208C8.22627 9.88329 8.20312 9.93918 8.20312 9.99745C8.20312 10.0557 8.22627 10.1116 8.26748 10.1528C8.30869 10.194 8.36458 10.2172 8.42285 10.2172ZM4.73145 10.8985H6.75038C6.80866 10.8985 6.86455 10.8753 6.90575 10.8341C6.94696 10.7929 6.97011 10.737 6.97011 10.6787C6.97011 10.6205 6.94696 10.5646 6.90575 10.5234C6.86455 10.4822 6.80866 10.459 6.75038 10.459H4.95117V8.65699H6.75038C6.80866 8.65699 6.86455 8.63384 6.90575 8.59264C6.94696 8.55143 6.97011 8.49554 6.97011 8.43727C6.97011 8.37899 6.94696 8.3231 6.90575 8.28189C6.86455 8.24069 6.80866 8.21754 6.75038 8.21754H4.73145C4.67317 8.21754 4.61728 8.24069 4.57608 8.2819C4.53487 8.3231 4.51172 8.37899 4.51172 8.43727V10.6787C4.51172 10.737 4.53487 10.7929 4.57608 10.8341C4.61728 10.8753 4.67317 10.8985 4.73145 10.8985ZM8.42285 9.33827H10.2686C10.3268 9.33827 10.3827 9.31513 10.4239 9.27392C10.4651 9.23271 10.4883 9.17682 10.4883 9.11855C10.4883 9.06027 10.4651 9.00438 10.4239 8.96318C10.3827 8.92197 10.3268 8.89882 10.2686 8.89882H8.42285C8.36458 8.89882 8.30869 8.92197 8.26748 8.96318C8.22627 9.00438 8.20312 9.06027 8.20312 9.11855C8.20312 9.17682 8.22627 9.23271 8.26748 9.27392C8.30869 9.31513 8.36458 9.33827 8.42285 9.33827ZM4.73145 6.94338H6.75038C6.80866 6.94338 6.86455 6.92023 6.90575 6.87902C6.94696 6.83782 6.97011 6.78193 6.97011 6.72365C6.97011 6.66538 6.94696 6.60949 6.90575 6.56828C6.86455 6.52708 6.80866 6.50393 6.75038 6.50393H4.95117V4.70191H6.75038C6.80866 4.70191 6.86455 4.67876 6.90575 4.63755C6.94696 4.59635 6.97011 4.54046 6.97011 4.48218C6.97011 4.42391 6.94696 4.36802 6.90575 4.32681C6.86455 4.28561 6.80866 4.26246 6.75038 4.26246H4.73145C4.67317 4.26246 4.61728 4.28561 4.57608 4.32681C4.53487 4.36802 4.51172 4.42391 4.51172 4.48218V6.72365C4.51172 6.78193 4.53487 6.83782 4.57608 6.87902C4.61728 6.92023 4.67317 6.94338 4.73145 6.94338ZM11.8799 1.28908H9.67386C9.64316 1.17533 9.57589 1.07485 9.48242 1.00313C9.38895 0.931407 9.27448 0.892436 9.15666 0.892226H8.69835C8.67858 0.891462 8.65958 0.884347 8.64416 0.871935C8.62875 0.859523 8.61774 0.842475 8.61278 0.823318C8.53989 0.585027 8.39244 0.376427 8.19212 0.228217C7.9918 0.0800065 7.74919 1.52588e-05 7.5 1.52588e-05C7.25081 1.52588e-05 7.0082 0.0800065 6.80788 0.228217C6.60756 0.376427 6.46011 0.585027 6.38722 0.823318C6.38226 0.842475 6.37125 0.859523 6.35584 0.871935C6.34042 0.884347 6.32142 0.891462 6.30165 0.892226H5.84334C5.72552 0.892436 5.61105 0.931407 5.51758 1.00313C5.42411 1.07485 5.35684 1.17533 5.32614 1.28908H3.12012C2.82884 1.28941 2.54959 1.40526 2.34363 1.61122C2.13767 1.81719 2.02181 2.09644 2.02148 2.38771V13.9014C2.02181 14.1927 2.13767 14.4719 2.34363 14.6779C2.54959 14.8838 2.82884 14.9997 3.12012 15H11.8799C12.1712 14.9997 12.4504 14.8838 12.6564 14.6779C12.8623 14.4719 12.9782 14.1927 12.9785 13.9014V2.38771C12.9782 2.09644 12.8623 1.81719 12.6564 1.61122C12.4504 1.40526 12.1712 1.28941 11.8799 1.28908ZM5.74658 1.42844C5.74661 1.40279 5.75681 1.37819 5.77495 1.36005C5.79309 1.34191 5.81769 1.33171 5.84334 1.33168H6.30165C6.41567 1.33132 6.52652 1.29413 6.61768 1.22564C6.70885 1.15716 6.77544 1.06105 6.80753 0.951635C6.85293 0.803386 6.9447 0.673619 7.06935 0.581423C7.19401 0.489226 7.34496 0.439468 7.5 0.439468C7.65504 0.439468 7.80599 0.489226 7.93065 0.581423C8.0553 0.673619 8.14707 0.803386 8.19247 0.951635C8.22456 1.06105 8.29115 1.15716 8.38232 1.22564C8.47348 1.29413 8.58433 1.33132 8.69835 1.33168H9.15666C9.18231 1.33171 9.20691 1.34191 9.22505 1.36005C9.24319 1.37819 9.25339 1.40279 9.25342 1.42844V2.70351C9.25339 2.72917 9.24319 2.75376 9.22505 2.7719C9.20691 2.79004 9.18231 2.80025 9.15666 2.80027H5.84334C5.81769 2.80025 5.79309 2.79004 5.77495 2.7719C5.75681 2.75376 5.74661 2.72917 5.74658 2.70351V1.42844ZM5.34507 2.90041C5.3846 3.00036 5.45322 3.08614 5.54206 3.14663C5.6309 3.20713 5.73586 3.23956 5.84334 3.23973H9.15666C9.26414 3.23956 9.3691 3.20713 9.45794 3.14663C9.54678 3.08614 9.6154 3.00036 9.65493 2.90041H11.001C11.0981 2.90052 11.1912 2.93914 11.2598 3.00779C11.3285 3.07644 11.3671 3.16953 11.3672 3.26662V11.6309H10.1221C9.98614 11.631 9.85583 11.6851 9.75971 11.7812C9.6636 11.8773 9.60953 12.0077 9.60938 12.1436V13.3887H3.99902C3.90193 13.3886 3.80885 13.35 3.74019 13.2813C3.67154 13.2127 3.63292 13.1196 3.63281 13.0225V3.26662C3.63292 3.16953 3.67154 3.07644 3.74019 3.00779C3.80885 2.93914 3.90193 2.90052 3.99902 2.90041H5.34507ZM11.0565 12.0703L10.0488 13.078V12.1436C10.0489 12.1242 10.0566 12.1055 10.0703 12.0918C10.084 12.0781 10.1027 12.0704 10.1221 12.0703H11.0565ZM12.5391 13.9014C12.5389 14.0762 12.4694 14.2437 12.3458 14.3673C12.2222 14.4909 12.0546 14.5604 11.8799 14.5606H3.12012C2.94535 14.5604 2.7778 14.4909 2.65422 14.3673C2.53065 14.2437 2.46113 14.0762 2.46094 13.9014V2.38771C2.46113 2.21295 2.53065 2.0454 2.65422 1.92182C2.7778 1.79824 2.94535 1.72873 3.12012 1.72853H5.30713V2.46095H3.99902C3.78542 2.4612 3.58064 2.54616 3.4296 2.6972C3.27856 2.84823 3.1936 3.05302 3.19336 3.26662V13.0225C3.1936 13.2361 3.27856 13.4409 3.4296 13.5919C3.58064 13.743 3.78542 13.8279 3.99902 13.8282H9.8291C9.83646 13.8282 9.84377 13.8278 9.85104 13.827C9.85636 13.8265 9.86156 13.8256 9.86676 13.8247C9.86862 13.8244 9.87051 13.8242 9.87236 13.8238C9.87852 13.8226 9.88453 13.821 9.89049 13.8193C9.89137 13.819 9.89228 13.8189 9.89316 13.8186C9.89922 13.8168 9.90514 13.8146 9.91097 13.8122C9.91175 13.8119 9.91257 13.8117 9.91335 13.8114C9.91889 13.8091 9.92424 13.8064 9.92953 13.8037C9.93061 13.8032 9.93174 13.8027 9.93281 13.8021C9.93769 13.7995 9.94238 13.7966 9.94703 13.7936C9.94843 13.7927 9.9499 13.792 9.95128 13.791C9.95571 13.7881 9.95992 13.7848 9.96412 13.7815C9.96558 13.7804 9.96712 13.7794 9.96855 13.7782C9.9741 13.7737 9.97942 13.7688 9.98451 13.7638L11.7422 12.006C11.7473 12.0009 11.7521 11.9956 11.7567 11.9901C11.7579 11.9886 11.7589 11.9871 11.76 11.9856C11.7633 11.9814 11.7666 11.9772 11.7695 11.9728C11.7704 11.9714 11.7712 11.9699 11.7721 11.9685C11.7751 11.9639 11.778 11.9592 11.7806 11.9543C11.7812 11.9532 11.7816 11.9521 11.7822 11.951C11.7849 11.9458 11.7875 11.9404 11.7898 11.9349C11.7902 11.9341 11.7904 11.9333 11.7907 11.9325C11.7931 11.9266 11.7952 11.9207 11.7971 11.9147C11.7974 11.9138 11.7975 11.9129 11.7978 11.912C11.7995 11.906 11.8011 11.9 11.8023 11.8939C11.8027 11.892 11.8029 11.8901 11.8032 11.8883C11.8041 11.8831 11.805 11.8779 11.8055 11.8725C11.8063 11.8653 11.8066 11.858 11.8066 11.8506V3.26662C11.8064 3.05302 11.7214 2.84824 11.5704 2.6972C11.4194 2.54616 11.2146 2.4612 11.001 2.46095H9.69287V1.72853H11.8799C12.0546 1.72873 12.2222 1.79824 12.3458 1.92182C12.4694 2.0454 12.5389 2.21295 12.5391 2.38771V13.9014ZM5.93758 5.35205C5.89635 5.31094 5.8405 5.28788 5.78228 5.28792C5.72406 5.28796 5.66824 5.31111 5.62707 5.35227C5.5859 5.39344 5.56276 5.44927 5.56272 5.50748C5.56267 5.5657 5.58574 5.62156 5.62685 5.66279L6.15511 6.19105C6.17551 6.21145 6.19973 6.22764 6.22639 6.23868C6.25305 6.24972 6.28162 6.2554 6.31047 6.2554C6.33933 6.2554 6.3679 6.24972 6.39456 6.23868C6.42122 6.22764 6.44544 6.21145 6.46584 6.19105L7.81448 4.84239C7.85566 4.80117 7.87878 4.7453 7.87877 4.68704C7.87875 4.62878 7.8556 4.57292 7.81441 4.53172C7.77322 4.49053 7.71735 4.46738 7.6591 4.46737C7.60084 4.46735 7.54496 4.49048 7.50375 4.53165L6.31047 5.72494L5.93758 5.35205Z" fill="#2F4858" stroke="#2F4858" stroke-width="0.2"/>
</g>
<defs>
<clipPath id="clip0_37_50">
<rect width="15" height="15" fill="white"/>
</clipPath>
</defs>
</svg>
