<svg width="20" height="20" viewBox="0 0 20 20" fill="none" xmlns="http://www.w3.org/2000/svg">
<path d="M15.8334 9.99586C15.6124 9.99586 15.4004 10.0837 15.2442 10.2399C15.0879 10.3962 15.0001 10.6082 15.0001 10.8292V11.1459L13.7667 9.91253C13.3313 9.48048 12.7427 9.23805 12.1292 9.23805C11.5158 9.23805 10.9272 9.48048 10.4917 9.91253L9.90842 10.4959L7.84175 8.42919C7.40018 8.00886 6.81389 7.77443 6.20425 7.77443C5.59461 7.77443 5.00832 8.00886 4.56675 8.42919L3.33341 9.66253V4.99586C3.33341 4.77485 3.42121 4.56288 3.57749 4.4066C3.73377 4.25032 3.94573 4.16253 4.16675 4.16253H10.0001C10.2211 4.16253 10.4331 4.07473 10.5893 3.91845C10.7456 3.76217 10.8334 3.55021 10.8334 3.32919C10.8334 3.10818 10.7456 2.89622 10.5893 2.73994C10.4331 2.58366 10.2211 2.49586 10.0001 2.49586H4.16675C3.50371 2.49586 2.86782 2.75925 2.39898 3.22809C1.93014 3.69693 1.66675 4.33282 1.66675 4.99586V14.9959C1.66675 15.6589 1.93014 16.2948 2.39898 16.7636C2.86782 17.2325 3.50371 17.4959 4.16675 17.4959H14.1667C14.8298 17.4959 15.4657 17.2325 15.9345 16.7636C16.4034 16.2948 16.6667 15.6589 16.6667 14.9959V10.8292C16.6667 10.6082 16.579 10.3962 16.4227 10.2399C16.2664 10.0837 16.0544 9.99586 15.8334 9.99586ZM4.16675 15.8292C3.94573 15.8292 3.73377 15.7414 3.57749 15.5851C3.42121 15.4288 3.33341 15.2169 3.33341 14.9959V12.0209L5.75008 9.60419C5.87251 9.48753 6.03514 9.42245 6.20425 9.42245C6.37336 9.42245 6.53599 9.48753 6.65841 9.60419L9.30008 12.2459L12.8834 15.8292H4.16675ZM15.0001 14.9959C14.9989 15.1554 14.9463 15.3103 14.8501 15.4375L11.0917 11.6625L11.6751 11.0792C11.7348 11.0182 11.8061 10.9698 11.8848 10.9367C11.9635 10.9036 12.048 10.8866 12.1334 10.8866C12.2188 10.8866 12.3033 10.9036 12.382 10.9367C12.4607 10.9698 12.532 11.0182 12.5917 11.0792L15.0001 13.5042V14.9959ZM18.9251 2.73753L16.4251 0.237526C16.3458 0.161659 16.2524 0.102189 16.1501 0.0625265C15.9472 -0.0208218 15.7196 -0.0208218 15.5167 0.0625265C15.4145 0.102189 15.321 0.161659 15.2417 0.237526L12.7417 2.73753C12.6641 2.81523 12.6024 2.90747 12.5604 3.00899C12.5183 3.1105 12.4967 3.21931 12.4967 3.32919C12.4967 3.55111 12.5848 3.76394 12.7417 3.92086C12.8987 4.07778 13.1115 4.16594 13.3334 4.16594C13.5553 4.16594 13.7682 4.07778 13.9251 3.92086L15.0001 2.83753V7.49586C15.0001 7.71687 15.0879 7.92884 15.2442 8.08512C15.4004 8.2414 15.6124 8.32919 15.8334 8.32919C16.0544 8.32919 16.2664 8.2414 16.4227 8.08512C16.579 7.92884 16.6667 7.71687 16.6667 7.49586V2.83753L17.7417 3.92086C17.8192 3.99897 17.9114 4.06096 18.0129 4.10327C18.1145 4.14558 18.2234 4.16736 18.3334 4.16736C18.4434 4.16736 18.5523 4.14558 18.6539 4.10327C18.7554 4.06096 18.8476 3.99897 18.9251 3.92086C19.0032 3.84339 19.0652 3.75122 19.1075 3.64967C19.1498 3.54812 19.1716 3.4392 19.1716 3.32919C19.1716 3.21918 19.1498 3.11026 19.1075 3.00871C19.0652 2.90716 19.0032 2.815 18.9251 2.73753Z" fill="#2F4858"/>
</svg>
