<svg width="15" height="15" viewBox="0 0 15 15" fill="none" xmlns="http://www.w3.org/2000/svg">
<path d="M5.77499 14.2828C5.59289 14.2837 5.41256 14.247 5.24531 14.175L4.37343 13.8141C4.03029 13.671 3.75776 13.3978 3.61546 13.0544C3.47316 12.7109 3.47265 12.3251 3.61406 11.9812L3.89062 11.3109C3.90146 11.2833 3.90413 11.2532 3.89831 11.2241C3.89249 11.195 3.87843 11.1682 3.85781 11.1469C3.83661 11.1245 3.80922 11.109 3.77916 11.1023C3.7491 11.0957 3.71772 11.0981 3.68906 11.1094L3.01874 11.3859C2.84794 11.4565 2.66489 11.4928 2.48006 11.4926C2.29524 11.4924 2.11227 11.4558 1.94161 11.3848C1.77095 11.3138 1.61595 11.2099 1.48548 11.079C1.35501 10.9481 1.25163 10.7928 1.18124 10.6219L0.824994 9.75937C0.682125 9.41499 0.681861 9.02798 0.82426 8.6834C0.96666 8.33883 1.24007 8.06491 1.58437 7.92187L2.25468 7.64531C2.28176 7.632 2.3045 7.61128 2.32027 7.58556C2.33603 7.55983 2.34418 7.53016 2.34374 7.49999C2.34509 7.46904 2.33738 7.43837 2.32156 7.41173C2.30574 7.38509 2.2825 7.36363 2.25468 7.34999L1.58437 7.07812C1.24007 6.93507 0.96666 6.66115 0.82426 6.31658C0.681861 5.97201 0.682125 5.585 0.824994 5.24062L1.18593 4.36874C1.32989 4.02645 1.6034 3.75499 1.94677 3.6136C2.29014 3.47221 2.6755 3.47238 3.01874 3.61406L3.68906 3.89062C3.71667 3.90146 3.74682 3.90413 3.77591 3.89831C3.805 3.89249 3.8318 3.87843 3.85312 3.85781C3.87546 3.83661 3.89096 3.80922 3.89764 3.77916C3.90432 3.7491 3.90188 3.71772 3.89062 3.68906L3.61406 3.01874C3.54345 2.84794 3.50721 2.66489 3.5074 2.48006C3.50759 2.29524 3.54422 2.11227 3.61518 1.94161C3.68614 1.77095 3.79005 1.61595 3.92096 1.48548C4.05187 1.35501 4.20722 1.25163 4.37812 1.18124L5.24062 0.824994C5.585 0.682125 5.97201 0.681861 6.31658 0.82426C6.66115 0.96666 6.93507 1.24007 7.07812 1.58437L7.35468 2.25468C7.36799 2.28176 7.38871 2.3045 7.41443 2.32027C7.44016 2.33603 7.46983 2.34418 7.49999 2.34374C7.53095 2.34509 7.56162 2.33738 7.58826 2.32156C7.6149 2.30574 7.63635 2.2825 7.64999 2.25468L7.92187 1.58437C8.06491 1.24007 8.33883 0.96666 8.6834 0.82426C9.02798 0.681861 9.41499 0.682125 9.75937 0.824994L10.6312 1.18593C10.9744 1.32901 11.2469 1.60214 11.3892 1.94561C11.5315 2.28907 11.532 2.67491 11.3906 3.01874L11.1094 3.68906C11.0985 3.71667 11.0959 3.74682 11.1017 3.77591C11.1075 3.805 11.1216 3.8318 11.1422 3.85312C11.1634 3.87546 11.1908 3.89096 11.2208 3.89764C11.2509 3.90432 11.2823 3.90188 11.3109 3.89062L11.9812 3.61406C12.1521 3.54345 12.3351 3.50721 12.5199 3.5074C12.7047 3.50759 12.8877 3.54422 13.0584 3.61518C13.229 3.68614 13.384 3.79005 13.5145 3.92096C13.645 4.05187 13.7484 4.20722 13.8187 4.37812L14.175 5.24062C14.3179 5.585 14.3181 5.97201 14.1757 6.31658C14.0333 6.66115 13.7599 6.93507 13.4156 7.07812L12.7453 7.35468C12.7182 7.36799 12.6955 7.38871 12.6797 7.41443C12.664 7.44016 12.6558 7.46983 12.6562 7.49999C12.6549 7.53095 12.6626 7.56162 12.6784 7.58826C12.6942 7.6149 12.7175 7.63635 12.7453 7.64999L13.4156 7.92187C13.7599 8.06491 14.0333 8.33883 14.1757 8.6834C14.3181 9.02798 14.3179 9.41499 14.175 9.75937L13.8141 10.6312C13.671 10.9744 13.3978 11.2469 13.0544 11.3892C12.7109 11.5315 12.3251 11.532 11.9812 11.3906L11.3109 11.1141C11.2833 11.1032 11.2532 11.1005 11.2241 11.1064C11.195 11.1122 11.1682 11.1262 11.1469 11.1469C11.1245 11.1681 11.109 11.1955 11.1023 11.2255C11.0957 11.2556 11.0981 11.287 11.1094 11.3156L11.3859 11.9859C11.4565 12.1567 11.4928 12.3398 11.4926 12.5246C11.4924 12.7094 11.4558 12.8924 11.3848 13.0631C11.3138 13.2337 11.2099 13.3887 11.079 13.5192C10.9481 13.6497 10.7928 13.753 10.6219 13.8234L9.75937 14.1797C9.41499 14.3226 9.02798 14.3228 8.6834 14.1804C8.33883 14.038 8.06491 13.7646 7.92187 13.4203L7.64531 12.75C7.63268 12.722 7.61225 12.6983 7.58647 12.6817C7.5607 12.6651 7.53067 12.6562 7.49999 12.6562C7.46904 12.6549 7.43837 12.6626 7.41173 12.6784C7.38509 12.6942 7.36363 12.7175 7.34999 12.7453L7.07812 13.4156C6.97129 13.673 6.79038 13.8929 6.55836 14.0473C6.32635 14.2017 6.05369 14.2837 5.77499 14.2828ZM3.74999 10.1578C3.92956 10.1593 4.10606 10.2046 4.2641 10.2898C4.42215 10.3751 4.55695 10.4977 4.65678 10.647C4.7566 10.7963 4.81842 10.9677 4.83684 11.1463C4.85527 11.3249 4.82975 11.5054 4.76249 11.6719L4.48124 12.3375C4.45756 12.3947 4.44544 12.456 4.44559 12.518C4.44574 12.5799 4.45817 12.6412 4.48214 12.6983C4.50611 12.7554 4.54116 12.8071 4.58525 12.8506C4.62935 12.8941 4.68162 12.9284 4.73906 12.9516L5.62499 13.3125C5.68221 13.3362 5.74355 13.3483 5.80547 13.3481C5.8674 13.348 5.92868 13.3356 5.98577 13.3116C6.04287 13.2876 6.09465 13.2526 6.13812 13.2085C6.1816 13.1644 6.2159 13.1121 6.23906 13.0547L6.51093 12.3937C6.59113 12.1964 6.72774 12.0271 6.90367 11.9071C7.07959 11.787 7.28702 11.7215 7.49999 11.7187C7.71563 11.7174 7.92675 11.7805 8.1063 11.8999C8.28586 12.0194 8.42566 12.1897 8.50781 12.3891L8.78437 13.0547C8.80797 13.1117 8.8426 13.1635 8.88627 13.2071C8.92994 13.2507 8.98178 13.2852 9.03883 13.3088C9.09589 13.3323 9.15702 13.3443 9.21873 13.3441C9.28044 13.344 9.34151 13.3316 9.39843 13.3078L10.2656 12.9516C10.3788 12.9019 10.4691 12.8116 10.5187 12.6984C10.5426 12.6413 10.5549 12.5799 10.5549 12.518C10.5549 12.456 10.5426 12.3947 10.5187 12.3375L10.2422 11.6719C10.1706 11.4756 10.1566 11.263 10.2018 11.059C10.2469 10.8551 10.3494 10.6682 10.4971 10.5205C10.6448 10.3728 10.8316 10.2703 11.0356 10.2252C11.2396 10.18 11.4522 10.1941 11.6484 10.2656L12.3141 10.5469C12.3713 10.5706 12.4326 10.5827 12.4945 10.5825C12.5565 10.5824 12.6177 10.5699 12.6748 10.546C12.7319 10.522 12.7837 10.487 12.8272 10.4429C12.8707 10.3988 12.905 10.3465 12.9281 10.2891L13.2891 9.42187C13.3127 9.36466 13.3249 9.30332 13.3247 9.24139C13.3246 9.17947 13.3121 9.11819 13.2882 9.06109C13.2642 9.004 13.2291 8.95222 13.185 8.90874C13.141 8.86527 13.0887 8.83096 13.0312 8.80781L12.3703 8.53593C12.1718 8.45194 12.0025 8.31134 11.8834 8.13169C11.7644 7.95204 11.7009 7.7413 11.7009 7.52578C11.7009 7.31026 11.7644 7.09951 11.8834 6.91986C12.0025 6.74021 12.1718 6.59961 12.3703 6.51562L13.0359 6.23906C13.0946 6.21727 13.1483 6.18396 13.1939 6.14108C13.2395 6.09819 13.2761 6.04661 13.3014 5.98938C13.3268 5.93215 13.3404 5.87042 13.3415 5.80783C13.3426 5.74525 13.3311 5.68308 13.3078 5.62499L12.9516 4.75781C12.9019 4.64465 12.8116 4.55429 12.6984 4.50468C12.6413 4.48083 12.5799 4.46855 12.518 4.46855C12.456 4.46855 12.3947 4.48083 12.3375 4.50468L11.6719 4.78124C11.4731 4.85598 11.257 4.87143 11.0496 4.82572C10.8423 4.78001 10.6527 4.67511 10.5038 4.52374C10.3549 4.37237 10.2531 4.18104 10.2109 3.97297C10.1686 3.7649 10.1876 3.54903 10.2656 3.35156L10.5469 2.68593C10.5706 2.62872 10.5827 2.56738 10.5825 2.50545C10.5824 2.44353 10.5699 2.38225 10.546 2.32515C10.522 2.26806 10.487 2.21628 10.4429 2.1728C10.3988 2.12933 10.3465 2.09502 10.2891 2.07187L9.39843 1.68749C9.34122 1.66381 9.27988 1.65169 9.21795 1.65184C9.15603 1.65199 9.09475 1.66442 9.03765 1.68839C8.98056 1.71236 8.92878 1.74741 8.8853 1.7915C8.84183 1.8356 8.80752 1.88788 8.78437 1.94531L8.51249 2.60624C8.43078 2.80725 8.29057 2.97907 8.11003 3.09943C7.9295 3.21978 7.71696 3.28313 7.49999 3.28124C7.28436 3.28257 7.07324 3.21947 6.89368 3.10005C6.71413 2.98063 6.57433 2.81031 6.49218 2.61093L6.21562 1.94531C6.16794 1.83582 6.08027 1.74866 5.9705 1.70162C5.86074 1.65458 5.73716 1.6512 5.62499 1.69218L4.75781 2.04843C4.64465 2.09804 4.55429 2.1884 4.50468 2.30156C4.48083 2.35873 4.46855 2.42007 4.46855 2.48203C4.46855 2.54398 4.48083 2.60532 4.50468 2.66249L4.78124 3.32812C4.86653 3.53049 4.8891 3.7538 4.84604 3.96914C4.80298 4.18449 4.69627 4.38195 4.53973 4.53596C4.38319 4.68998 4.18402 4.79346 3.968 4.83301C3.75199 4.87257 3.52908 4.84637 3.32812 4.75781L2.66249 4.47656C2.60528 4.45287 2.54394 4.44075 2.48202 4.4409C2.42009 4.44106 2.35881 4.45348 2.30172 4.47745C2.24462 4.50142 2.19284 4.53647 2.14937 4.58057C2.10589 4.62466 2.07159 4.67694 2.04843 4.73437L1.68749 5.62499C1.66381 5.68221 1.65169 5.74355 1.65184 5.80547C1.65199 5.8674 1.66442 5.92868 1.68839 5.98577C1.71236 6.04287 1.74741 6.09465 1.7915 6.13812C1.8356 6.1816 1.88788 6.2159 1.94531 6.23906L2.60624 6.51093C2.80472 6.59492 2.97406 6.73552 3.09312 6.91517C3.21217 7.09482 3.27566 7.30557 3.27566 7.52109C3.27566 7.73661 3.21217 7.94735 3.09312 8.127C2.97406 8.30666 2.80472 8.44726 2.60624 8.53124L1.94062 8.80781C1.8836 8.83141 1.83181 8.86604 1.7882 8.90971C1.7446 8.95337 1.71005 9.00522 1.68653 9.06227C1.66302 9.11932 1.651 9.18046 1.65116 9.24217C1.65132 9.30387 1.66367 9.36494 1.68749 9.42187L2.04374 10.2891C2.09336 10.4022 2.18371 10.4926 2.29687 10.5422C2.35405 10.566 2.41538 10.5783 2.47734 10.5783C2.53929 10.5783 2.60063 10.566 2.65781 10.5422L3.32343 10.2656C3.45679 10.201 3.60195 10.1643 3.74999 10.1578ZM7.49999 9.84374C7.11434 9.84445 6.73448 9.74999 6.39408 9.56873C6.05368 9.38746 5.76328 9.12501 5.54861 8.80463C5.33394 8.48424 5.20164 8.11584 5.16346 7.73209C5.12527 7.34833 5.18236 6.96108 5.32968 6.60468C5.49177 6.21254 5.75728 5.87177 6.09787 5.6187C6.43846 5.36564 6.84136 5.20979 7.2636 5.16777C7.68583 5.12575 8.11154 5.19914 8.49533 5.38012C8.87912 5.5611 9.20657 5.84287 9.44276 6.19537C9.67896 6.54787 9.81502 6.95788 9.83645 7.38166C9.85787 7.80543 9.76385 8.22708 9.56441 8.6016C9.36498 8.97613 9.06761 9.28949 8.70403 9.50825C8.34045 9.72701 7.92431 9.84296 7.49999 9.84374ZM7.49999 6.09374C7.31504 6.09459 7.13199 6.1312 6.96093 6.20156C6.61663 6.3446 6.34322 6.61852 6.20082 6.96309C6.05842 7.30766 6.05869 7.69468 6.20156 8.03906C6.3446 8.38336 6.61852 8.65677 6.96309 8.79916C7.30766 8.94156 7.69468 8.9413 8.03906 8.79843C8.29555 8.69176 8.5147 8.51151 8.66887 8.28043C8.82303 8.04935 8.90531 7.77778 8.90531 7.49999C8.90531 7.22221 8.82303 6.95064 8.66887 6.71956C8.5147 6.48847 8.29555 6.30823 8.03906 6.20156C7.86867 6.12903 7.68517 6.09233 7.49999 6.09374Z" fill="#2F4858"/>
</svg>
